<svg width="132" height="62" viewBox="0 0 132 62" fill="none" xmlns="http://www.w3.org/2000/svg">
<path fill-rule="evenodd" clip-rule="evenodd" d="M47.3846 20.7436H21.7436V15.6154H47.3846V20.7436ZM16.6154 25.8718H21.7436V31L16.6154 31V36.1282H21.7436L21.7436 31H47.3846V25.8718H21.7436V20.7436H16.6154V25.8718ZM47.3846 41.2564H21.7436V36.1282H47.3846V41.2564ZM21.7436 41.2564L21.7436 46.3846H16.6154V41.2564L21.7436 41.2564Z" fill="#5282FF"/>
<path d="M68.6179 32.5481V41H64.621V32.576L58.1538 21H62.5393L66.8692 29.1172L71.338 21H75.0295L68.6179 32.5481Z" fill="#262626"/>
<path d="M77.0906 21H90.1637V24.3473H81.0597V29.5914H88.7759V32.9107H81.0597V41H77.0906V21Z" fill="#262626"/>
<path d="M109.569 26.9135L104.795 37.9317H101.27L96.635 26.7462V41H93.11V21H98.3004L103.324 33.6639L108.792 21H113.538V41H109.569V26.9135Z" fill="#262626"/>
</svg>
