<svg width="100" height="32" fill="none" xmlns="http://www.w3.org/2000/svg"><g clip-path="url(#clip0_7026:71497)"><path fill-rule="evenodd" clip-rule="evenodd" d="M31.385 5.744H5.744V.615h25.64v5.129zM.615 10.872h5.129V16H.615v5.128h5.129V16h25.64v-5.128H5.745V5.744H.615v5.128zm30.77 15.384H5.744v-5.128h25.64v5.128zm-25.641 0v5.129H.615v-5.129h5.129z" fill="#5282FF"/><path d="M52.618 17.548V26H48.62v-8.424L42.154 6h4.385l4.33 8.117L55.338 6h3.691l-6.411 11.548zM61.09 6h13.074v3.347H65.06v5.244h7.716v3.32H65.06V26h-3.97V6zM93.57 11.914l-4.775 11.018H85.27l-4.635-11.186V26H77.11V6h5.19l5.024 12.664L92.792 6h4.746v20H93.57V11.914z" fill="#262626"/></g><defs><clipPath id="clip0_7026:71497"><path fill="#fff" d="M0 0h100v32H0z"/></clipPath></defs></svg>