<svg xmlns="http://www.w3.org/2000/svg" xmlns:xlink="http://www.w3.org/1999/xlink" width="20" height="20" fill="currentColor" stroke="none" aria-hidden="true"><svg viewBox="0 0 15 15" fill="none" xmlns="http://www.w3.org/2000/svg"><path d="M13.24 6.82l.94-.53a.7.7 0 00.32-.79 7.42 7.42 0 00-1.87-3.25.76.76 0 00-.85-.12l-.94.56a5.2 5.2 0 00-.97-.56V1.05c0-.3-.23-.62-.52-.68a7.28 7.28 0 00-3.72 0 .69.69 0 00-.53.68v1.08c-.3.12-.73.38-.97.56l-.94-.56a.76.76 0 00-.85.12A7.45 7.45 0 00.47 5.5a.7.7 0 00.32.8l.94.52c-.03.17-.03.4-.03.56 0 .17 0 .4.03.55l-.94.56a.7.7 0 00-.32.79c.32 1.23 1 2.34 1.88 3.25.23.2.58.27.85.12l.93-.56c.24.18.68.44.97.56v1.08c0 .3.23.62.53.68a7.28 7.28 0 003.72 0 .69.69 0 00.52-.68v-1.08c.3-.12.74-.38.97-.56l.94.56c.26.15.61.09.85-.12a7.42 7.42 0 001.87-3.25.7.7 0 00-.32-.8l-.94-.55a6.9 6.9 0 000-1.11zM11.7 8.69l1.29.74a6.17 6.17 0 01-1 1.7l-1.29-.74c-.93.8-1.05.88-2.22 1.3v1.49c-.27.03-.7.08-.97.08-.3 0-.73-.06-1-.08v-1.5a4.86 4.86 0 01-2.22-1.29l-1.3.73A6.18 6.18 0 012 9.43l1.3-.73a4.9 4.9 0 010-2.6l-1.3-.74c.24-.61.56-1.2 1-1.7l1.29.74c.94-.8 1.05-.88 2.23-1.3V1.62c.26-.04.7-.1 1-.1.26 0 .7.06.96.1V3.1c1.17.4 1.32.5 2.22 1.29l1.3-.73c.35.4.81 1.17.99 1.7l-1.29.73a4.93 4.93 0 010 2.6zM7.5 4.56a2.83 2.83 0 00-2.81 2.81A2.81 2.81 0 007.5 10.2a2.83 2.83 0 002.81-2.81A2.85 2.85 0 007.5 4.55zm0 4.22a1.39 1.39 0 01-1.4-1.4c0-.77.6-1.41 1.4-1.41.76 0 1.4.64 1.4 1.4 0 .8-.64 1.41-1.4 1.41z" fill="currentColor"></path></svg></svg>
